# Blender v2.81 (sub 16) OBJ File: ''
# www.blender.org
mtllib FlatPlate_roll_force_at_sideslip_angle.mtl
o Cube
v -0.556274 1.000000 0.124422
v -0.556274 -1.000000 0.124422
v -0.556274 1.000000 -0.124422
v -0.556274 -1.000000 -0.124422
v 1.443726 1.000000 0.124422
v 1.443726 -1.000000 0.124422
v 1.443726 1.000000 -0.124422
v 1.443726 -1.000000 -0.124422
v -0.306274 -1.000000 0.124422
v -0.056274 -1.000000 0.124422
v 0.193726 -1.000000 0.124422
v 0.443726 -1.000000 0.124422
v 0.693726 -1.000000 0.124422
v 0.943726 -1.000000 0.124422
v 1.193726 -1.000000 0.124422
v -0.306274 1.000000 -0.124422
v -0.056274 1.000000 -0.124422
v 0.193726 1.000000 -0.124422
v 0.443726 1.000000 -0.124422
v 0.693726 1.000000 -0.124422
v 0.943726 1.000000 -0.124422
v 1.193726 1.000000 -0.124422
v 1.193726 -1.000000 -0.124422
v 0.943726 -1.000000 -0.124422
v 0.693726 -1.000000 -0.124422
v 0.443726 -1.000000 -0.124422
v 0.193726 -1.000000 -0.124422
v -0.056274 -1.000000 -0.124422
v -0.306274 -1.000000 -0.124422
v 1.193726 1.000000 0.124422
v 0.943726 1.000000 0.124422
v 0.693726 1.000000 0.124422
v 0.443726 1.000000 0.124422
v 0.193726 1.000000 0.124422
v -0.056274 1.000000 0.124422
v -0.306274 1.000000 0.124422
v -0.556274 0.714286 0.124422
v -0.556274 0.428571 0.124422
v -0.556274 0.142857 0.124422
v -0.556274 -0.142857 0.124422
v -0.556274 -0.428571 0.124422
v -0.556274 -0.714286 0.124422
v 1.443726 -0.714286 -0.124422
v 1.443726 -0.428571 -0.124422
v 1.443726 -0.142857 -0.124422
v 1.443726 0.142857 -0.124422
v 1.443726 0.428571 -0.124422
v 1.443726 0.714286 -0.124422
v -0.556274 0.714286 -0.124422
v -0.556274 0.428571 -0.124422
v -0.556274 0.142857 -0.124422
v -0.556274 -0.142857 -0.124422
v -0.556274 -0.428571 -0.124422
v -0.556274 -0.714286 -0.124422
v 1.443726 0.714286 0.124422
v 1.443726 0.428571 0.124422
v 1.443726 0.142857 0.124422
v 1.443726 -0.142857 0.124422
v 1.443726 -0.428571 0.124422
v 1.443726 -0.714286 0.124422
v 1.193726 0.714286 0.124422
v 1.193726 0.428571 0.124422
v 1.193726 0.142857 0.124422
v 1.193726 -0.142857 0.124422
v 1.193726 -0.428571 0.124422
v 1.193726 -0.714286 0.124422
v 0.943726 0.714286 0.124422
v 0.943726 0.428571 0.124422
v 0.943726 0.142857 0.124422
v 0.943726 -0.142857 0.124422
v 0.943726 -0.428571 0.124422
v 0.943726 -0.714286 0.124422
v 0.693726 0.714286 0.124422
v 0.693726 0.428571 0.124422
v 0.693726 0.142857 0.124422
v 0.693726 -0.142857 0.124422
v 0.693726 -0.428571 0.124422
v 0.693726 -0.714286 0.124422
v 0.443726 0.714286 0.124422
v 0.443726 0.428571 0.124422
v 0.443726 0.142857 0.124422
v 0.443726 -0.142857 0.124422
v 0.443726 -0.428571 0.124422
v 0.443726 -0.714286 0.124422
v 0.193726 0.714286 0.124422
v 0.193726 0.428571 0.124422
v 0.193726 0.142857 0.124422
v 0.193726 -0.142857 0.124422
v 0.193726 -0.428571 0.124422
v 0.193726 -0.714286 0.124422
v -0.056274 0.714286 0.124422
v -0.056274 0.428571 0.124422
v -0.056274 0.142857 0.124422
v -0.056274 -0.142857 0.124422
v -0.056274 -0.428571 0.124422
v -0.056274 -0.714286 0.124422
v -0.306274 0.714286 0.124422
v -0.306274 0.428571 0.124422
v -0.306274 0.142857 0.124422
v -0.306274 -0.142857 0.124422
v -0.306274 -0.428571 0.124422
v -0.306274 -0.714286 0.124422
v -0.306274 0.714286 -0.124422
v -0.306274 0.428571 -0.124422
v -0.306274 0.142857 -0.124422
v -0.306274 -0.142857 -0.124422
v -0.306274 -0.428571 -0.124422
v -0.306274 -0.714286 -0.124422
v -0.056274 0.714286 -0.124422
v -0.056274 0.428571 -0.124422
v -0.056274 0.142857 -0.124422
v -0.056274 -0.142857 -0.124422
v -0.056274 -0.428571 -0.124422
v -0.056274 -0.714286 -0.124422
v 0.193726 0.714286 -0.124422
v 0.193726 0.428571 -0.124422
v 0.193726 0.142857 -0.124422
v 0.193726 -0.142857 -0.124422
v 0.193726 -0.428571 -0.124422
v 0.193726 -0.714286 -0.124422
v 0.443726 0.714286 -0.124422
v 0.443726 0.428571 -0.124422
v 0.443726 0.142857 -0.124422
v 0.443726 -0.142857 -0.124422
v 0.443726 -0.428571 -0.124422
v 0.443726 -0.714286 -0.124422
v 0.693726 0.714286 -0.124422
v 0.693726 0.428571 -0.124422
v 0.693726 0.142857 -0.124422
v 0.693726 -0.142857 -0.124422
v 0.693726 -0.428571 -0.124422
v 0.693726 -0.714286 -0.124422
v 0.943726 0.714286 -0.124422
v 0.943726 0.428571 -0.124422
v 0.943726 0.142857 -0.124422
v 0.943726 -0.142857 -0.124422
v 0.943726 -0.428571 -0.124422
v 0.943726 -0.714286 -0.124422
v 1.193726 0.714286 -0.124422
v 1.193726 0.428571 -0.124422
v 1.193726 0.142857 -0.124422
v 1.193726 -0.142857 -0.124422
v 1.193726 -0.428571 -0.124422
v 1.193726 -0.714286 -0.124422
vt 0.875000 0.500000
vt 0.843750 0.750000
vt 0.843750 0.500000
vt 0.625000 0.968750
vt 0.589286 1.000000
vt 0.589286 0.968750
vt 0.625000 0.000000
vt 0.589286 0.250000
vt 0.589286 0.000000
vt 0.375000 0.500000
vt 0.343750 0.750000
vt 0.343750 0.500000
vt 0.625000 0.500000
vt 0.589286 0.750000
vt 0.589286 0.500000
vt 0.625000 0.468750
vt 0.589286 0.468750
vt 0.625000 0.250000
vt 0.589286 0.281250
vt 0.625000 0.281250
vt 0.589286 0.312500
vt 0.625000 0.312500
vt 0.589286 0.343750
vt 0.625000 0.343750
vt 0.589286 0.375000
vt 0.625000 0.375000
vt 0.589286 0.406250
vt 0.625000 0.406250
vt 0.589286 0.437500
vt 0.625000 0.437500
vt 0.156250 0.500000
vt 0.125000 0.750000
vt 0.125000 0.500000
vt 0.187500 0.500000
vt 0.156250 0.750000
vt 0.218750 0.500000
vt 0.187500 0.750000
vt 0.250000 0.500000
vt 0.218750 0.750000
vt 0.281250 0.500000
vt 0.250000 0.750000
vt 0.312500 0.500000
vt 0.281250 0.750000
vt 0.312500 0.750000
vt 0.625000 0.750000
vt 0.589286 0.781250
vt 0.625000 0.781250
vt 0.589286 0.812500
vt 0.625000 0.812500
vt 0.589286 0.843750
vt 0.625000 0.843750
vt 0.589286 0.875000
vt 0.625000 0.875000
vt 0.589286 0.906250
vt 0.625000 0.906250
vt 0.589286 0.937500
vt 0.625000 0.937500
vt 0.656250 0.500000
vt 0.687500 0.500000
vt 0.656250 0.750000
vt 0.718750 0.500000
vt 0.687500 0.750000
vt 0.750000 0.500000
vt 0.718750 0.750000
vt 0.781250 0.500000
vt 0.750000 0.750000
vt 0.812500 0.500000
vt 0.781250 0.750000
vt 0.812500 0.750000
vt 0.410714 0.937500
vt 0.375000 0.968750
vt 0.375000 0.937500
vt 0.446429 0.937500
vt 0.410714 0.968750
vt 0.482143 0.937500
vt 0.446429 0.968750
vt 0.517857 0.937500
vt 0.482143 0.968750
vt 0.553571 0.937500
vt 0.517857 0.968750
vt 0.553571 0.968750
vt 0.410714 0.906250
vt 0.375000 0.906250
vt 0.446429 0.906250
vt 0.482143 0.906250
vt 0.517857 0.906250
vt 0.553571 0.906250
vt 0.410714 0.875000
vt 0.375000 0.875000
vt 0.446429 0.875000
vt 0.482143 0.875000
vt 0.517857 0.875000
vt 0.553571 0.875000
vt 0.410714 0.843750
vt 0.375000 0.843750
vt 0.446429 0.843750
vt 0.482143 0.843750
vt 0.517857 0.843750
vt 0.553571 0.843750
vt 0.410714 0.812500
vt 0.375000 0.812500
vt 0.446429 0.812500
vt 0.482143 0.812500
vt 0.517857 0.812500
vt 0.553571 0.812500
vt 0.410714 0.781250
vt 0.375000 0.781250
vt 0.446429 0.781250
vt 0.482143 0.781250
vt 0.517857 0.781250
vt 0.553571 0.781250
vt 0.410714 0.750000
vt 0.375000 0.750000
vt 0.446429 0.750000
vt 0.482143 0.750000
vt 0.517857 0.750000
vt 0.553571 0.750000
vt 0.410714 0.437500
vt 0.375000 0.468750
vt 0.375000 0.437500
vt 0.446429 0.437500
vt 0.410714 0.468750
vt 0.482143 0.437500
vt 0.446429 0.468750
vt 0.517857 0.437500
vt 0.482143 0.468750
vt 0.553571 0.437500
vt 0.517857 0.468750
vt 0.553571 0.468750
vt 0.410714 0.406250
vt 0.375000 0.406250
vt 0.446429 0.406250
vt 0.482143 0.406250
vt 0.517857 0.406250
vt 0.553571 0.406250
vt 0.410714 0.375000
vt 0.375000 0.375000
vt 0.446429 0.375000
vt 0.482143 0.375000
vt 0.517857 0.375000
vt 0.553571 0.375000
vt 0.410714 0.343750
vt 0.375000 0.343750
vt 0.446429 0.343750
vt 0.482143 0.343750
vt 0.517857 0.343750
vt 0.553571 0.343750
vt 0.410714 0.312500
vt 0.375000 0.312500
vt 0.446429 0.312500
vt 0.482143 0.312500
vt 0.517857 0.312500
vt 0.553571 0.312500
vt 0.410714 0.281250
vt 0.375000 0.281250
vt 0.446429 0.281250
vt 0.482143 0.281250
vt 0.517857 0.281250
vt 0.553571 0.281250
vt 0.410714 0.250000
vt 0.375000 0.250000
vt 0.446429 0.250000
vt 0.482143 0.250000
vt 0.517857 0.250000
vt 0.553571 0.250000
vt 0.410714 0.500000
vt 0.446429 0.500000
vt 0.482143 0.500000
vt 0.517857 0.500000
vt 0.553571 0.500000
vt 0.410714 0.000000
vt 0.375000 0.000000
vt 0.446429 0.000000
vt 0.482143 0.000000
vt 0.517857 0.000000
vt 0.553571 0.000000
vt 0.375000 1.000000
vt 0.410714 1.000000
vt 0.446429 1.000000
vt 0.482143 1.000000
vt 0.517857 1.000000
vt 0.553571 1.000000
vt 0.875000 0.750000
vt 0.625000 1.000000
vn 0.0000 1.0000 0.0000
vn -0.0000 0.0000 -1.0000
vn 1.0000 0.0000 0.0000
vn 0.0000 -1.0000 0.0000
vn -1.0000 0.0000 0.0000
vn 0.0000 0.0000 1.0000
usemtl Material
s off
f 5/1/1 22/2/1 30/3/1
f 22/4/2 48/5/2 139/6/2
f 7/7/3 55/8/3 48/9/3
f 2/10/4 29/11/4 9/12/4
f 1/13/5 49/14/5 37/15/5
f 36/16/6 37/15/6 97/17/6
f 5/18/6 61/19/6 55/8/6
f 30/20/6 67/21/6 61/19/6
f 31/22/6 73/23/6 67/21/6
f 32/24/6 79/25/6 73/23/6
f 33/26/6 85/27/6 79/25/6
f 34/28/6 91/29/6 85/27/6
f 35/30/6 97/17/6 91/29/6
f 15/31/4 8/32/4 6/33/4
f 14/34/4 23/35/4 15/31/4
f 13/36/4 24/37/4 14/34/4
f 12/38/4 25/39/4 13/36/4
f 11/40/4 26/41/4 12/38/4
f 10/42/4 27/43/4 11/40/4
f 9/12/4 28/44/4 10/42/4
f 3/45/2 103/46/2 49/14/2
f 16/47/2 109/48/2 103/46/2
f 17/49/2 115/50/2 109/48/2
f 18/51/2 121/52/2 115/50/2
f 19/53/2 127/54/2 121/52/2
f 20/55/2 133/56/2 127/54/2
f 21/57/2 139/6/2 133/56/2
f 36/58/1 3/45/1 1/13/1
f 35/59/1 16/60/1 36/58/1
f 34/61/1 17/62/1 35/59/1
f 33/63/1 18/64/1 34/61/1
f 32/65/1 19/66/1 33/63/1
f 31/67/1 20/68/1 32/65/1
f 30/3/1 21/69/1 31/67/1
f 138/70/2 23/71/2 24/72/2
f 137/73/2 144/74/2 138/70/2
f 136/75/2 143/76/2 137/73/2
f 135/77/2 142/78/2 136/75/2
f 134/79/2 141/80/2 135/77/2
f 133/56/2 140/81/2 134/79/2
f 132/82/2 24/72/2 25/83/2
f 131/84/2 138/70/2 132/82/2
f 130/85/2 137/73/2 131/84/2
f 129/86/2 136/75/2 130/85/2
f 128/87/2 135/77/2 129/86/2
f 127/54/2 134/79/2 128/87/2
f 126/88/2 25/83/2 26/89/2
f 125/90/2 132/82/2 126/88/2
f 124/91/2 131/84/2 125/90/2
f 123/92/2 130/85/2 124/91/2
f 122/93/2 129/86/2 123/92/2
f 121/52/2 128/87/2 122/93/2
f 120/94/2 26/89/2 27/95/2
f 119/96/2 126/88/2 120/94/2
f 118/97/2 125/90/2 119/96/2
f 117/98/2 124/91/2 118/97/2
f 116/99/2 123/92/2 117/98/2
f 115/50/2 122/93/2 116/99/2
f 114/100/2 27/95/2 28/101/2
f 113/102/2 120/94/2 114/100/2
f 112/103/2 119/96/2 113/102/2
f 111/104/2 118/97/2 112/103/2
f 110/105/2 117/98/2 111/104/2
f 109/48/2 116/99/2 110/105/2
f 108/106/2 28/101/2 29/107/2
f 107/108/2 114/100/2 108/106/2
f 106/109/2 113/102/2 107/108/2
f 105/110/2 112/103/2 106/109/2
f 104/111/2 111/104/2 105/110/2
f 103/46/2 110/105/2 104/111/2
f 54/112/2 29/107/2 4/113/2
f 53/114/2 108/106/2 54/112/2
f 52/115/2 107/108/2 53/114/2
f 51/116/2 106/109/2 52/115/2
f 50/117/2 105/110/2 51/116/2
f 49/14/2 104/111/2 50/117/2
f 96/118/6 9/119/6 10/120/6
f 95/121/6 102/122/6 96/118/6
f 94/123/6 101/124/6 95/121/6
f 93/125/6 100/126/6 94/123/6
f 92/127/6 99/128/6 93/125/6
f 91/29/6 98/129/6 92/127/6
f 90/130/6 10/120/6 11/131/6
f 89/132/6 96/118/6 90/130/6
f 88/133/6 95/121/6 89/132/6
f 87/134/6 94/123/6 88/133/6
f 86/135/6 93/125/6 87/134/6
f 85/27/6 92/127/6 86/135/6
f 84/136/6 11/131/6 12/137/6
f 83/138/6 90/130/6 84/136/6
f 82/139/6 89/132/6 83/138/6
f 81/140/6 88/133/6 82/139/6
f 80/141/6 87/134/6 81/140/6
f 79/25/6 86/135/6 80/141/6
f 78/142/6 12/137/6 13/143/6
f 77/144/6 84/136/6 78/142/6
f 76/145/6 83/138/6 77/144/6
f 75/146/6 82/139/6 76/145/6
f 74/147/6 81/140/6 75/146/6
f 73/23/6 80/141/6 74/147/6
f 72/148/6 13/143/6 14/149/6
f 71/150/6 78/142/6 72/148/6
f 70/151/6 77/144/6 71/150/6
f 69/152/6 76/145/6 70/151/6
f 68/153/6 75/146/6 69/152/6
f 67/21/6 74/147/6 68/153/6
f 66/154/6 14/149/6 15/155/6
f 65/156/6 72/148/6 66/154/6
f 64/157/6 71/150/6 65/156/6
f 63/158/6 70/151/6 64/157/6
f 62/159/6 69/152/6 63/158/6
f 61/19/6 68/153/6 62/159/6
f 60/160/6 15/155/6 6/161/6
f 59/162/6 66/154/6 60/160/6
f 58/163/6 65/156/6 59/162/6
f 57/164/6 64/157/6 58/163/6
f 56/165/6 63/158/6 57/164/6
f 55/8/6 62/159/6 56/165/6
f 102/122/6 2/10/6 9/119/6
f 101/124/6 42/166/6 102/122/6
f 100/126/6 41/167/6 101/124/6
f 99/128/6 40/168/6 100/126/6
f 98/129/6 39/169/6 99/128/6
f 97/17/6 38/170/6 98/129/6
f 42/166/5 4/113/5 2/10/5
f 41/167/5 54/112/5 42/166/5
f 40/168/5 53/114/5 41/167/5
f 39/169/5 52/115/5 40/168/5
f 38/170/5 51/116/5 39/169/5
f 37/15/5 50/117/5 38/170/5
f 43/171/3 6/161/3 8/172/3
f 44/173/3 60/160/3 43/171/3
f 45/174/3 59/162/3 44/173/3
f 46/175/3 58/163/3 45/174/3
f 47/176/3 57/164/3 46/175/3
f 48/9/3 56/165/3 47/176/3
f 144/74/2 8/177/2 23/71/2
f 143/76/2 43/178/2 144/74/2
f 142/78/2 44/179/2 143/76/2
f 141/80/2 45/180/2 142/78/2
f 140/81/2 46/181/2 141/80/2
f 139/6/2 47/182/2 140/81/2
f 5/1/1 7/183/1 22/2/1
f 22/4/2 7/184/2 48/5/2
f 7/7/3 5/18/3 55/8/3
f 2/10/4 4/113/4 29/11/4
f 1/13/5 3/45/5 49/14/5
f 36/16/6 1/13/6 37/15/6
f 5/18/6 30/20/6 61/19/6
f 30/20/6 31/22/6 67/21/6
f 31/22/6 32/24/6 73/23/6
f 32/24/6 33/26/6 79/25/6
f 33/26/6 34/28/6 85/27/6
f 34/28/6 35/30/6 91/29/6
f 35/30/6 36/16/6 97/17/6
f 15/31/4 23/35/4 8/32/4
f 14/34/4 24/37/4 23/35/4
f 13/36/4 25/39/4 24/37/4
f 12/38/4 26/41/4 25/39/4
f 11/40/4 27/43/4 26/41/4
f 10/42/4 28/44/4 27/43/4
f 9/12/4 29/11/4 28/44/4
f 3/45/2 16/47/2 103/46/2
f 16/47/2 17/49/2 109/48/2
f 17/49/2 18/51/2 115/50/2
f 18/51/2 19/53/2 121/52/2
f 19/53/2 20/55/2 127/54/2
f 20/55/2 21/57/2 133/56/2
f 21/57/2 22/4/2 139/6/2
f 36/58/1 16/60/1 3/45/1
f 35/59/1 17/62/1 16/60/1
f 34/61/1 18/64/1 17/62/1
f 33/63/1 19/66/1 18/64/1
f 32/65/1 20/68/1 19/66/1
f 31/67/1 21/69/1 20/68/1
f 30/3/1 22/2/1 21/69/1
f 138/70/2 144/74/2 23/71/2
f 137/73/2 143/76/2 144/74/2
f 136/75/2 142/78/2 143/76/2
f 135/77/2 141/80/2 142/78/2
f 134/79/2 140/81/2 141/80/2
f 133/56/2 139/6/2 140/81/2
f 132/82/2 138/70/2 24/72/2
f 131/84/2 137/73/2 138/70/2
f 130/85/2 136/75/2 137/73/2
f 129/86/2 135/77/2 136/75/2
f 128/87/2 134/79/2 135/77/2
f 127/54/2 133/56/2 134/79/2
f 126/88/2 132/82/2 25/83/2
f 125/90/2 131/84/2 132/82/2
f 124/91/2 130/85/2 131/84/2
f 123/92/2 129/86/2 130/85/2
f 122/93/2 128/87/2 129/86/2
f 121/52/2 127/54/2 128/87/2
f 120/94/2 126/88/2 26/89/2
f 119/96/2 125/90/2 126/88/2
f 118/97/2 124/91/2 125/90/2
f 117/98/2 123/92/2 124/91/2
f 116/99/2 122/93/2 123/92/2
f 115/50/2 121/52/2 122/93/2
f 114/100/2 120/94/2 27/95/2
f 113/102/2 119/96/2 120/94/2
f 112/103/2 118/97/2 119/96/2
f 111/104/2 117/98/2 118/97/2
f 110/105/2 116/99/2 117/98/2
f 109/48/2 115/50/2 116/99/2
f 108/106/2 114/100/2 28/101/2
f 107/108/2 113/102/2 114/100/2
f 106/109/2 112/103/2 113/102/2
f 105/110/2 111/104/2 112/103/2
f 104/111/2 110/105/2 111/104/2
f 103/46/2 109/48/2 110/105/2
f 54/112/2 108/106/2 29/107/2
f 53/114/2 107/108/2 108/106/2
f 52/115/2 106/109/2 107/108/2
f 51/116/2 105/110/2 106/109/2
f 50/117/2 104/111/2 105/110/2
f 49/14/2 103/46/2 104/111/2
f 96/118/6 102/122/6 9/119/6
f 95/121/6 101/124/6 102/122/6
f 94/123/6 100/126/6 101/124/6
f 93/125/6 99/128/6 100/126/6
f 92/127/6 98/129/6 99/128/6
f 91/29/6 97/17/6 98/129/6
f 90/130/6 96/118/6 10/120/6
f 89/132/6 95/121/6 96/118/6
f 88/133/6 94/123/6 95/121/6
f 87/134/6 93/125/6 94/123/6
f 86/135/6 92/127/6 93/125/6
f 85/27/6 91/29/6 92/127/6
f 84/136/6 90/130/6 11/131/6
f 83/138/6 89/132/6 90/130/6
f 82/139/6 88/133/6 89/132/6
f 81/140/6 87/134/6 88/133/6
f 80/141/6 86/135/6 87/134/6
f 79/25/6 85/27/6 86/135/6
f 78/142/6 84/136/6 12/137/6
f 77/144/6 83/138/6 84/136/6
f 76/145/6 82/139/6 83/138/6
f 75/146/6 81/140/6 82/139/6
f 74/147/6 80/141/6 81/140/6
f 73/23/6 79/25/6 80/141/6
f 72/148/6 78/142/6 13/143/6
f 71/150/6 77/144/6 78/142/6
f 70/151/6 76/145/6 77/144/6
f 69/152/6 75/146/6 76/145/6
f 68/153/6 74/147/6 75/146/6
f 67/21/6 73/23/6 74/147/6
f 66/154/6 72/148/6 14/149/6
f 65/156/6 71/150/6 72/148/6
f 64/157/6 70/151/6 71/150/6
f 63/158/6 69/152/6 70/151/6
f 62/159/6 68/153/6 69/152/6
f 61/19/6 67/21/6 68/153/6
f 60/160/6 66/154/6 15/155/6
f 59/162/6 65/156/6 66/154/6
f 58/163/6 64/157/6 65/156/6
f 57/164/6 63/158/6 64/157/6
f 56/165/6 62/159/6 63/158/6
f 55/8/6 61/19/6 62/159/6
f 102/122/6 42/166/6 2/10/6
f 101/124/6 41/167/6 42/166/6
f 100/126/6 40/168/6 41/167/6
f 99/128/6 39/169/6 40/168/6
f 98/129/6 38/170/6 39/169/6
f 97/17/6 37/15/6 38/170/6
f 42/166/5 54/112/5 4/113/5
f 41/167/5 53/114/5 54/112/5
f 40/168/5 52/115/5 53/114/5
f 39/169/5 51/116/5 52/115/5
f 38/170/5 50/117/5 51/116/5
f 37/15/5 49/14/5 50/117/5
f 43/171/3 60/160/3 6/161/3
f 44/173/3 59/162/3 60/160/3
f 45/174/3 58/163/3 59/162/3
f 46/175/3 57/164/3 58/163/3
f 47/176/3 56/165/3 57/164/3
f 48/9/3 55/8/3 56/165/3
f 144/74/2 43/178/2 8/177/2
f 143/76/2 44/179/2 43/178/2
f 142/78/2 45/180/2 44/179/2
f 141/80/2 46/181/2 45/180/2
f 140/81/2 47/182/2 46/181/2
f 139/6/2 48/5/2 47/182/2
