solid Exported from Blender-2.81 (sub 16)
facet normal 0.000000 0.000000 -1.000000
outer loop
vertex -0.180000 0.175000 0.220000
vertex 0.180000 0.175000 0.220000
vertex 0.180000 -0.175000 0.220000
endloop
endfacet
facet normal 0.000000 0.000000 -1.000000
outer loop
vertex -0.180000 0.175000 0.220000
vertex 0.180000 -0.175000 0.220000
vertex -0.180000 -0.175000 0.220000
endloop
endfacet
facet normal 0.000000 1.000000 0.000000
outer loop
vertex -0.180000 -0.175000 0.000000
vertex -0.180000 -0.175000 0.220000
vertex 0.180000 -0.175000 0.220000
endloop
endfacet
facet normal 0.000000 1.000000 0.000000
outer loop
vertex -0.180000 -0.175000 0.000000
vertex 0.180000 -0.175000 0.220000
vertex 0.180000 -0.175000 0.000000
endloop
endfacet
facet normal -1.000000 0.000000 0.000000
outer loop
vertex 0.180000 -0.175000 0.000000
vertex 0.180000 -0.175000 0.220000
vertex 0.180000 0.175000 0.220000
endloop
endfacet
facet normal -1.000000 0.000000 0.000000
outer loop
vertex 0.180000 -0.175000 0.000000
vertex 0.180000 0.175000 0.220000
vertex 0.180000 0.175000 0.000000
endloop
endfacet
facet normal 0.000000 0.000000 1.000000
outer loop
vertex 0.180000 0.175000 0.000000
vertex -0.180000 0.175000 0.000000
vertex -0.180000 -0.175000 0.000000
endloop
endfacet
facet normal 0.000000 0.000000 1.000000
outer loop
vertex 0.180000 0.175000 0.000000
vertex -0.180000 -0.175000 0.000000
vertex 0.180000 -0.175000 0.000000
endloop
endfacet
facet normal 1.000000 0.000000 0.000000
outer loop
vertex -0.180000 0.175000 0.000000
vertex -0.180000 0.175000 0.220000
vertex -0.180000 -0.175000 0.220000
endloop
endfacet
facet normal 1.000000 0.000000 0.000000
outer loop
vertex -0.180000 0.175000 0.000000
vertex -0.180000 -0.175000 0.220000
vertex -0.180000 -0.175000 0.000000
endloop
endfacet
facet normal -0.000000 -1.000000 0.000000
outer loop
vertex 0.180000 0.175000 0.000000
vertex 0.180000 0.175000 0.220000
vertex -0.180000 0.175000 0.220000
endloop
endfacet
facet normal -0.000000 -1.000000 0.000000
outer loop
vertex 0.180000 0.175000 0.000000
vertex -0.180000 0.175000 0.220000
vertex -0.180000 0.175000 0.000000
endloop
endfacet
facet normal 0.097981 0.994818 -0.027130
outer loop
vertex 0.000000 0.175000 0.220000
vertex 0.000000 0.184000 0.550000
vertex 0.035897 0.180464 0.550000
endloop
endfacet
facet normal 0.097981 0.994818 -0.027130
outer loop
vertex 0.000000 0.175000 0.220000
vertex 0.035897 0.180464 0.550000
vertex 0.034141 0.171638 0.220000
endloop
endfacet
facet normal 0.290177 0.956588 -0.027130
outer loop
vertex 0.034141 0.171638 0.220000
vertex 0.035897 0.180464 0.550000
vertex 0.070414 0.169994 0.550000
endloop
endfacet
facet normal 0.290178 0.956588 -0.027131
outer loop
vertex 0.034141 0.171638 0.220000
vertex 0.070414 0.169994 0.550000
vertex 0.066970 0.161679 0.220000
endloop
endfacet
facet normal 0.471224 0.881596 -0.027131
outer loop
vertex 0.066970 0.161679 0.220000
vertex 0.070414 0.169994 0.550000
vertex 0.102225 0.152990 0.550000
endloop
endfacet
facet normal 0.471223 0.881596 -0.027131
outer loop
vertex 0.066970 0.161679 0.220000
vertex 0.102225 0.152990 0.550000
vertex 0.097225 0.145507 0.220000
endloop
endfacet
facet normal 0.634160 0.772726 -0.027131
outer loop
vertex 0.097225 0.145507 0.220000
vertex 0.102225 0.152990 0.550000
vertex 0.130108 0.130108 0.550000
endloop
endfacet
facet normal 0.634160 0.772726 -0.027131
outer loop
vertex 0.097225 0.145507 0.220000
vertex 0.130108 0.130108 0.550000
vertex 0.123744 0.123744 0.220000
endloop
endfacet
facet normal 0.772726 0.634160 -0.027131
outer loop
vertex 0.123744 0.123744 0.220000
vertex 0.130108 0.130108 0.550000
vertex 0.152991 0.102225 0.550000
endloop
endfacet
facet normal 0.772726 0.634160 -0.027131
outer loop
vertex 0.123744 0.123744 0.220000
vertex 0.152991 0.102225 0.550000
vertex 0.145507 0.097225 0.220000
endloop
endfacet
facet normal 0.881597 0.471223 -0.027131
outer loop
vertex 0.145507 0.097225 0.220000
vertex 0.152991 0.102225 0.550000
vertex 0.169994 0.070414 0.550000
endloop
endfacet
facet normal 0.881596 0.471224 -0.027131
outer loop
vertex 0.145507 0.097225 0.220000
vertex 0.169994 0.070414 0.550000
vertex 0.161679 0.066970 0.220000
endloop
endfacet
facet normal 0.956588 0.290177 -0.027131
outer loop
vertex 0.161679 0.066970 0.220000
vertex 0.169994 0.070414 0.550000
vertex 0.180465 0.035897 0.550000
endloop
endfacet
facet normal 0.956588 0.290178 -0.027131
outer loop
vertex 0.161679 0.066970 0.220000
vertex 0.180465 0.035897 0.550000
vertex 0.171638 0.034141 0.220000
endloop
endfacet
facet normal 0.994818 0.097981 -0.027131
outer loop
vertex 0.171638 0.034141 0.220000
vertex 0.180465 0.035897 0.550000
vertex 0.184000 -0.000000 0.550000
endloop
endfacet
facet normal 0.994818 0.097982 -0.027131
outer loop
vertex 0.171638 0.034141 0.220000
vertex 0.184000 -0.000000 0.550000
vertex 0.175000 0.000000 0.220000
endloop
endfacet
facet normal 0.994818 -0.097981 -0.027132
outer loop
vertex 0.175000 0.000000 0.220000
vertex 0.184000 -0.000000 0.550000
vertex 0.180465 -0.035897 0.550000
endloop
endfacet
facet normal 0.994818 -0.097982 -0.027132
outer loop
vertex 0.175000 0.000000 0.220000
vertex 0.180465 -0.035897 0.550000
vertex 0.171637 -0.034141 0.220000
endloop
endfacet
facet normal 0.956588 -0.290179 -0.027132
outer loop
vertex 0.171637 -0.034141 0.220000
vertex 0.180465 -0.035897 0.550000
vertex 0.169994 -0.070414 0.550000
endloop
endfacet
facet normal 0.956588 -0.290178 -0.027132
outer loop
vertex 0.171637 -0.034141 0.220000
vertex 0.169994 -0.070414 0.550000
vertex 0.161679 -0.066969 0.220000
endloop
endfacet
facet normal 0.881597 -0.471223 -0.027132
outer loop
vertex 0.161679 -0.066969 0.220000
vertex 0.169994 -0.070414 0.550000
vertex 0.152991 -0.102225 0.550000
endloop
endfacet
facet normal 0.881597 -0.471222 -0.027132
outer loop
vertex 0.161679 -0.066969 0.220000
vertex 0.152991 -0.102225 0.550000
vertex 0.145507 -0.097225 0.220000
endloop
endfacet
facet normal 0.772725 -0.634160 -0.027132
outer loop
vertex 0.145507 -0.097225 0.220000
vertex 0.152991 -0.102225 0.550000
vertex 0.130108 -0.130108 0.550000
endloop
endfacet
facet normal 0.772726 -0.634160 -0.027132
outer loop
vertex 0.145507 -0.097225 0.220000
vertex 0.130108 -0.130108 0.550000
vertex 0.123744 -0.123743 0.220000
endloop
endfacet
facet normal 0.634160 -0.772726 -0.027132
outer loop
vertex 0.123744 -0.123743 0.220000
vertex 0.130108 -0.130108 0.550000
vertex 0.102225 -0.152990 0.550000
endloop
endfacet
facet normal 0.634160 -0.772726 -0.027132
outer loop
vertex 0.123744 -0.123743 0.220000
vertex 0.102225 -0.152990 0.550000
vertex 0.097225 -0.145507 0.220000
endloop
endfacet
facet normal 0.471223 -0.881597 -0.027132
outer loop
vertex 0.097225 -0.145507 0.220000
vertex 0.102225 -0.152990 0.550000
vertex 0.070414 -0.169994 0.550000
endloop
endfacet
facet normal 0.471223 -0.881597 -0.027132
outer loop
vertex 0.097225 -0.145507 0.220000
vertex 0.070414 -0.169994 0.550000
vertex 0.066970 -0.161679 0.220000
endloop
endfacet
facet normal 0.290178 -0.956588 -0.027132
outer loop
vertex 0.066970 -0.161679 0.220000
vertex 0.070414 -0.169994 0.550000
vertex 0.035897 -0.180465 0.550000
endloop
endfacet
facet normal 0.290177 -0.956588 -0.027132
outer loop
vertex 0.066970 -0.161679 0.220000
vertex 0.035897 -0.180465 0.550000
vertex 0.034141 -0.171637 0.220000
endloop
endfacet
facet normal 0.097980 -0.994819 -0.027132
outer loop
vertex 0.034141 -0.171637 0.220000
vertex 0.035897 -0.180465 0.550000
vertex 0.000000 -0.184000 0.550000
endloop
endfacet
facet normal 0.097981 -0.994818 -0.027132
outer loop
vertex 0.034141 -0.171637 0.220000
vertex 0.000000 -0.184000 0.550000
vertex 0.000000 -0.175000 0.220000
endloop
endfacet
facet normal -0.097981 -0.994818 -0.027132
outer loop
vertex 0.000000 -0.175000 0.220000
vertex 0.000000 -0.184000 0.550000
vertex -0.035897 -0.180465 0.550000
endloop
endfacet
facet normal -0.097981 -0.994818 -0.027132
outer loop
vertex 0.000000 -0.175000 0.220000
vertex -0.035897 -0.180465 0.550000
vertex -0.034141 -0.171637 0.220000
endloop
endfacet
facet normal -0.290179 -0.956588 -0.027132
outer loop
vertex -0.034141 -0.171637 0.220000
vertex -0.035897 -0.180465 0.550000
vertex -0.070414 -0.169994 0.550000
endloop
endfacet
facet normal -0.290179 -0.956588 -0.027132
outer loop
vertex -0.034141 -0.171637 0.220000
vertex -0.070414 -0.169994 0.550000
vertex -0.066970 -0.161679 0.220000
endloop
endfacet
facet normal -0.471224 -0.881596 -0.027132
outer loop
vertex -0.066970 -0.161679 0.220000
vertex -0.070414 -0.169994 0.550000
vertex -0.102225 -0.152990 0.550000
endloop
endfacet
facet normal -0.471223 -0.881597 -0.027132
outer loop
vertex -0.066970 -0.161679 0.220000
vertex -0.102225 -0.152990 0.550000
vertex -0.097225 -0.145507 0.220000
endloop
endfacet
facet normal -0.634160 -0.772725 -0.027132
outer loop
vertex -0.097225 -0.145507 0.220000
vertex -0.102225 -0.152990 0.550000
vertex -0.130108 -0.130108 0.550000
endloop
endfacet
facet normal -0.634160 -0.772726 -0.027132
outer loop
vertex -0.097225 -0.145507 0.220000
vertex -0.130108 -0.130108 0.550000
vertex -0.123744 -0.123743 0.220000
endloop
endfacet
facet normal -0.772726 -0.634159 -0.027132
outer loop
vertex -0.123744 -0.123743 0.220000
vertex -0.130108 -0.130108 0.550000
vertex -0.152990 -0.102225 0.550000
endloop
endfacet
facet normal -0.772726 -0.634159 -0.027132
outer loop
vertex -0.123744 -0.123743 0.220000
vertex -0.152990 -0.102225 0.550000
vertex -0.145507 -0.097224 0.220000
endloop
endfacet
facet normal -0.881597 -0.471223 -0.027132
outer loop
vertex -0.145507 -0.097224 0.220000
vertex -0.152990 -0.102225 0.550000
vertex -0.169994 -0.070414 0.550000
endloop
endfacet
facet normal -0.881597 -0.471223 -0.027132
outer loop
vertex -0.145507 -0.097224 0.220000
vertex -0.169994 -0.070414 0.550000
vertex -0.161679 -0.066969 0.220000
endloop
endfacet
facet normal -0.956589 -0.290176 -0.027132
outer loop
vertex -0.161679 -0.066969 0.220000
vertex -0.169994 -0.070414 0.550000
vertex -0.180464 -0.035897 0.550000
endloop
endfacet
facet normal -0.956588 -0.290177 -0.027132
outer loop
vertex -0.161679 -0.066969 0.220000
vertex -0.180464 -0.035897 0.550000
vertex -0.171637 -0.034140 0.220000
endloop
endfacet
facet normal -0.994818 -0.097980 -0.027131
outer loop
vertex -0.171637 -0.034140 0.220000
vertex -0.180464 -0.035897 0.550000
vertex -0.184000 0.000000 0.550000
endloop
endfacet
facet normal -0.994819 -0.097979 -0.027131
outer loop
vertex -0.171637 -0.034140 0.220000
vertex -0.184000 0.000000 0.550000
vertex -0.175000 0.000000 0.220000
endloop
endfacet
facet normal -0.994818 0.097981 -0.027131
outer loop
vertex -0.175000 0.000000 0.220000
vertex -0.184000 0.000000 0.550000
vertex -0.180464 0.035897 0.550000
endloop
endfacet
facet normal -0.994818 0.097983 -0.027131
outer loop
vertex -0.175000 0.000000 0.220000
vertex -0.180464 0.035897 0.550000
vertex -0.171637 0.034141 0.220000
endloop
endfacet
facet normal -0.956588 0.290179 -0.027131
outer loop
vertex -0.171637 0.034141 0.220000
vertex -0.180464 0.035897 0.550000
vertex -0.169994 0.070414 0.550000
endloop
endfacet
facet normal -0.956588 0.290178 -0.027131
outer loop
vertex -0.171637 0.034141 0.220000
vertex -0.169994 0.070414 0.550000
vertex -0.161679 0.066970 0.220000
endloop
endfacet
facet normal -0.881596 0.471224 -0.027131
outer loop
vertex -0.161679 0.066970 0.220000
vertex -0.169994 0.070414 0.550000
vertex -0.152990 0.102225 0.550000
endloop
endfacet
facet normal -0.881596 0.471224 -0.027131
outer loop
vertex -0.161679 0.066970 0.220000
vertex -0.152990 0.102225 0.550000
vertex -0.145507 0.097225 0.220000
endloop
endfacet
facet normal -0.772725 0.634161 -0.027131
outer loop
vertex -0.145507 0.097225 0.220000
vertex -0.152990 0.102225 0.550000
vertex -0.130107 0.130108 0.550000
endloop
endfacet
facet normal -0.772725 0.634161 -0.027131
outer loop
vertex -0.145507 0.097225 0.220000
vertex -0.130107 0.130108 0.550000
vertex -0.123743 0.123744 0.220000
endloop
endfacet
facet normal -0.634159 0.772727 -0.027131
outer loop
vertex -0.123743 0.123744 0.220000
vertex -0.130107 0.130108 0.550000
vertex -0.102225 0.152990 0.550000
endloop
endfacet
facet normal -0.634159 0.772727 -0.027131
outer loop
vertex -0.123743 0.123744 0.220000
vertex -0.102225 0.152990 0.550000
vertex -0.097225 0.145508 0.220000
endloop
endfacet
facet normal -0.471222 0.881597 -0.027131
outer loop
vertex -0.097225 0.145508 0.220000
vertex -0.102225 0.152990 0.550000
vertex -0.070413 0.169994 0.550000
endloop
endfacet
facet normal -0.471222 0.881597 -0.027131
outer loop
vertex -0.097225 0.145508 0.220000
vertex -0.070413 0.169994 0.550000
vertex -0.066969 0.161679 0.220000
endloop
endfacet
facet normal 0.000000 0.000000 1.000000
outer loop
vertex 0.070414 0.169994 0.550000
vertex 0.035897 0.180464 0.550000
vertex 0.000000 0.184000 0.550000
endloop
endfacet
facet normal 0.000000 0.000000 1.000000
outer loop
vertex 0.000000 0.184000 0.550000
vertex -0.035896 0.180465 0.550000
vertex -0.070413 0.169994 0.550000
endloop
endfacet
facet normal 0.000000 0.000000 1.000000
outer loop
vertex -0.070413 0.169994 0.550000
vertex -0.102225 0.152990 0.550000
vertex -0.130107 0.130108 0.550000
endloop
endfacet
facet normal 0.000000 0.000000 1.000000
outer loop
vertex -0.130107 0.130108 0.550000
vertex -0.152990 0.102225 0.550000
vertex -0.169994 0.070414 0.550000
endloop
endfacet
facet normal -0.000015 0.000000 1.000000
outer loop
vertex -0.169994 0.070414 0.550000
vertex -0.180464 0.035897 0.550000
vertex -0.184000 0.000000 0.550000
endloop
endfacet
facet normal 0.000015 0.000000 1.000000
outer loop
vertex -0.184000 0.000000 0.550000
vertex -0.180464 -0.035897 0.550000
vertex -0.169994 -0.070414 0.550000
endloop
endfacet
facet normal 0.000000 0.000000 1.000000
outer loop
vertex -0.169994 -0.070414 0.550000
vertex -0.152990 -0.102225 0.550000
vertex -0.130108 -0.130108 0.550000
endloop
endfacet
facet normal -0.000007 0.000000 1.000000
outer loop
vertex -0.130108 -0.130108 0.550000
vertex -0.102225 -0.152990 0.550000
vertex -0.070414 -0.169994 0.550000
endloop
endfacet
facet normal 0.000000 0.000000 1.000000
outer loop
vertex -0.070414 -0.169994 0.550000
vertex -0.035897 -0.180465 0.550000
vertex 0.000000 -0.184000 0.550000
endloop
endfacet
facet normal 0.000000 0.000000 1.000000
outer loop
vertex 0.000000 -0.184000 0.550000
vertex 0.035897 -0.180465 0.550000
vertex 0.070414 -0.169994 0.550000
endloop
endfacet
facet normal 0.000000 0.000000 1.000000
outer loop
vertex 0.070414 -0.169994 0.550000
vertex 0.102225 -0.152990 0.550000
vertex 0.130108 -0.130108 0.550000
endloop
endfacet
facet normal 0.000000 0.000000 1.000000
outer loop
vertex 0.130108 -0.130108 0.550000
vertex 0.152991 -0.102225 0.550000
vertex 0.169994 -0.070414 0.550000
endloop
endfacet
facet normal -0.000029 0.000000 1.000000
outer loop
vertex 0.169994 -0.070414 0.550000
vertex 0.180465 -0.035897 0.550000
vertex 0.184000 -0.000000 0.550000
endloop
endfacet
facet normal 0.000015 0.000000 1.000000
outer loop
vertex 0.184000 -0.000000 0.550000
vertex 0.180465 0.035897 0.550000
vertex 0.169994 0.070414 0.550000
endloop
endfacet
facet normal -0.000015 0.000000 1.000000
outer loop
vertex 0.169994 0.070414 0.550000
vertex 0.152991 0.102225 0.550000
vertex 0.130108 0.130108 0.550000
endloop
endfacet
facet normal 0.000000 0.000000 1.000000
outer loop
vertex 0.130108 0.130108 0.550000
vertex 0.102225 0.152990 0.550000
vertex 0.070414 0.169994 0.550000
endloop
endfacet
facet normal 0.000000 0.000000 1.000000
outer loop
vertex 0.070414 0.169994 0.550000
vertex 0.000000 0.184000 0.550000
vertex -0.070413 0.169994 0.550000
endloop
endfacet
facet normal 0.000000 0.000000 1.000000
outer loop
vertex -0.070413 0.169994 0.550000
vertex -0.130107 0.130108 0.550000
vertex -0.169994 0.070414 0.550000
endloop
endfacet
facet normal 0.000000 0.000000 1.000000
outer loop
vertex -0.169994 0.070414 0.550000
vertex -0.184000 0.000000 0.550000
vertex -0.169994 -0.070414 0.550000
endloop
endfacet
facet normal 0.000002 0.000000 1.000000
outer loop
vertex -0.169994 -0.070414 0.550000
vertex -0.130108 -0.130108 0.550000
vertex -0.070414 -0.169994 0.550000
endloop
endfacet
facet normal 0.000000 0.000000 1.000000
outer loop
vertex -0.070414 -0.169994 0.550000
vertex 0.000000 -0.184000 0.550000
vertex 0.070414 -0.169994 0.550000
endloop
endfacet
facet normal 0.000004 0.000000 1.000000
outer loop
vertex 0.070414 -0.169994 0.550000
vertex 0.130108 -0.130108 0.550000
vertex 0.169994 -0.070414 0.550000
endloop
endfacet
facet normal 0.000000 0.000000 1.000000
outer loop
vertex 0.169994 -0.070414 0.550000
vertex 0.184000 -0.000000 0.550000
vertex 0.169994 0.070414 0.550000
endloop
endfacet
facet normal 0.000000 0.000000 1.000000
outer loop
vertex 0.169994 0.070414 0.550000
vertex 0.130108 0.130108 0.550000
vertex 0.070414 0.169994 0.550000
endloop
endfacet
facet normal 0.000000 0.000000 1.000000
outer loop
vertex 0.070414 0.169994 0.550000
vertex -0.070413 0.169994 0.550000
vertex -0.169994 0.070414 0.550000
endloop
endfacet
facet normal -0.000001 0.000000 1.000000
outer loop
vertex -0.169994 0.070414 0.550000
vertex -0.169994 -0.070414 0.550000
vertex -0.070414 -0.169994 0.550000
endloop
endfacet
facet normal 0.000000 0.000000 1.000000
outer loop
vertex -0.070414 -0.169994 0.550000
vertex 0.070414 -0.169994 0.550000
vertex 0.169994 -0.070414 0.550000
endloop
endfacet
facet normal 0.000001 0.000000 1.000000
outer loop
vertex 0.169994 -0.070414 0.550000
vertex 0.169994 0.070414 0.550000
vertex 0.070414 0.169994 0.550000
endloop
endfacet
facet normal 0.000000 0.000000 1.000000
outer loop
vertex 0.070414 0.169994 0.550000
vertex -0.169994 0.070414 0.550000
vertex -0.070414 -0.169994 0.550000
endloop
endfacet
facet normal -0.000000 0.000000 1.000000
outer loop
vertex -0.070414 -0.169994 0.550000
vertex 0.169994 -0.070414 0.550000
vertex 0.070414 0.169994 0.550000
endloop
endfacet
facet normal -0.290177 0.956588 -0.027130
outer loop
vertex -0.066969 0.161679 0.220000
vertex -0.070413 0.169994 0.550000
vertex -0.035896 0.180465 0.550000
endloop
endfacet
facet normal -0.290176 0.956589 -0.027131
outer loop
vertex -0.066969 0.161679 0.220000
vertex -0.035896 0.180465 0.550000
vertex -0.034140 0.171638 0.220000
endloop
endfacet
facet normal -0.097979 0.994819 -0.027131
outer loop
vertex -0.034140 0.171638 0.220000
vertex -0.035896 0.180465 0.550000
vertex 0.000000 0.184000 0.550000
endloop
endfacet
facet normal -0.097981 0.994818 -0.027130
outer loop
vertex -0.034140 0.171638 0.220000
vertex 0.000000 0.184000 0.550000
vertex 0.000000 0.175000 0.220000
endloop
endfacet
facet normal 0.000000 0.000000 -1.000000
outer loop
vertex -0.034140 0.171638 0.220000
vertex 0.000000 0.175000 0.220000
vertex 0.034141 0.171638 0.220000
endloop
endfacet
facet normal 0.000002 0.000000 -1.000000
outer loop
vertex 0.034141 0.171638 0.220000
vertex 0.066970 0.161679 0.220000
vertex 0.097225 0.145507 0.220000
endloop
endfacet
facet normal 0.000000 0.000000 -1.000000
outer loop
vertex 0.097225 0.145507 0.220000
vertex 0.123744 0.123744 0.220000
vertex 0.145507 0.097225 0.220000
endloop
endfacet
facet normal 0.000004 0.000000 -1.000000
outer loop
vertex 0.145507 0.097225 0.220000
vertex 0.161679 0.066970 0.220000
vertex 0.171638 0.034141 0.220000
endloop
endfacet
facet normal 0.000000 0.000000 -1.000000
outer loop
vertex 0.171638 0.034141 0.220000
vertex 0.175000 0.000000 0.220000
vertex 0.171637 -0.034141 0.220000
endloop
endfacet
facet normal -0.000004 0.000000 -1.000000
outer loop
vertex 0.171637 -0.034141 0.220000
vertex 0.161679 -0.066969 0.220000
vertex 0.145507 -0.097225 0.220000
endloop
endfacet
facet normal 0.000000 0.000000 -1.000000
outer loop
vertex 0.145507 -0.097225 0.220000
vertex 0.123744 -0.123743 0.220000
vertex 0.097225 -0.145507 0.220000
endloop
endfacet
facet normal 0.000000 0.000000 -1.000000
outer loop
vertex 0.097225 -0.145507 0.220000
vertex 0.066970 -0.161679 0.220000
vertex 0.034141 -0.171637 0.220000
endloop
endfacet
facet normal 0.000000 0.000000 -1.000000
outer loop
vertex 0.034141 -0.171637 0.220000
vertex 0.000000 -0.175000 0.220000
vertex -0.034141 -0.171637 0.220000
endloop
endfacet
facet normal -0.000002 0.000000 -1.000000
outer loop
vertex -0.034141 -0.171637 0.220000
vertex -0.066970 -0.161679 0.220000
vertex -0.097225 -0.145507 0.220000
endloop
endfacet
facet normal 0.000000 0.000000 -1.000000
outer loop
vertex -0.097225 -0.145507 0.220000
vertex -0.123744 -0.123743 0.220000
vertex -0.145507 -0.097224 0.220000
endloop
endfacet
facet normal -0.000004 0.000000 -1.000000
outer loop
vertex -0.145507 -0.097224 0.220000
vertex -0.161679 -0.066969 0.220000
vertex -0.171637 -0.034140 0.220000
endloop
endfacet
facet normal -0.000004 0.000000 -1.000000
outer loop
vertex -0.171637 -0.034140 0.220000
vertex -0.175000 0.000000 0.220000
vertex -0.171637 0.034141 0.220000
endloop
endfacet
facet normal 0.000004 0.000000 -1.000000
outer loop
vertex -0.171637 0.034141 0.220000
vertex -0.161679 0.066970 0.220000
vertex -0.145507 0.097225 0.220000
endloop
endfacet
facet normal 0.000000 0.000000 -1.000000
outer loop
vertex -0.145507 0.097225 0.220000
vertex -0.123743 0.123744 0.220000
vertex -0.097225 0.145508 0.220000
endloop
endfacet
facet normal 0.000000 0.000000 -1.000000
outer loop
vertex -0.097225 0.145508 0.220000
vertex -0.066969 0.161679 0.220000
vertex -0.034140 0.171638 0.220000
endloop
endfacet
facet normal 0.000000 0.000000 -1.000000
outer loop
vertex -0.034140 0.171638 0.220000
vertex 0.034141 0.171638 0.220000
vertex 0.097225 0.145507 0.220000
endloop
endfacet
facet normal 0.000000 0.000000 -1.000000
outer loop
vertex 0.097225 0.145507 0.220000
vertex 0.145507 0.097225 0.220000
vertex 0.171638 0.034141 0.220000
endloop
endfacet
facet normal 0.000002 0.000000 -1.000000
outer loop
vertex 0.171638 0.034141 0.220000
vertex 0.171637 -0.034141 0.220000
vertex 0.145507 -0.097225 0.220000
endloop
endfacet
facet normal 0.000001 0.000000 -1.000000
outer loop
vertex 0.145507 -0.097225 0.220000
vertex 0.097225 -0.145507 0.220000
vertex 0.034141 -0.171637 0.220000
endloop
endfacet
facet normal 0.000000 0.000000 -1.000000
outer loop
vertex 0.034141 -0.171637 0.220000
vertex -0.034141 -0.171637 0.220000
vertex -0.097225 -0.145507 0.220000
endloop
endfacet
facet normal 0.000000 0.000000 -1.000000
outer loop
vertex -0.097225 -0.145507 0.220000
vertex -0.145507 -0.097224 0.220000
vertex -0.171637 -0.034140 0.220000
endloop
endfacet
facet normal 0.000000 0.000000 -1.000000
outer loop
vertex -0.171637 -0.034140 0.220000
vertex -0.171637 0.034141 0.220000
vertex -0.145507 0.097225 0.220000
endloop
endfacet
facet normal 0.000001 0.000000 -1.000000
outer loop
vertex -0.145507 0.097225 0.220000
vertex -0.097225 0.145508 0.220000
vertex -0.034140 0.171638 0.220000
endloop
endfacet
facet normal 0.000000 0.000000 -1.000000
outer loop
vertex -0.034140 0.171638 0.220000
vertex 0.097225 0.145507 0.220000
vertex 0.171638 0.034141 0.220000
endloop
endfacet
facet normal -0.000001 0.000000 -1.000000
outer loop
vertex 0.171638 0.034141 0.220000
vertex 0.145507 -0.097225 0.220000
vertex 0.034141 -0.171637 0.220000
endloop
endfacet
facet normal 0.000000 0.000000 -1.000000
outer loop
vertex 0.034141 -0.171637 0.220000
vertex -0.097225 -0.145507 0.220000
vertex -0.171637 -0.034140 0.220000
endloop
endfacet
facet normal 0.000000 0.000000 -1.000000
outer loop
vertex -0.171637 -0.034140 0.220000
vertex -0.145507 0.097225 0.220000
vertex -0.034140 0.171638 0.220000
endloop
endfacet
facet normal -0.000000 0.000000 -1.000000
outer loop
vertex -0.034140 0.171638 0.220000
vertex 0.171638 0.034141 0.220000
vertex 0.034141 -0.171637 0.220000
endloop
endfacet
facet normal 0.000000 0.000000 -1.000000
outer loop
vertex 0.034141 -0.171637 0.220000
vertex -0.171637 -0.034140 0.220000
vertex -0.034140 0.171638 0.220000
endloop
endfacet
endsolid Exported from Blender-2.81 (sub 16)
