# Blender v2.81 (sub 16) OBJ File: 'simple_sat.blend'
# www.blender.org
mtllib straight_combined_LAMP_sat.mtl
o 27U_combined_case_straight_solar
v -0.180000 0.220000 -0.175000
v 0.180000 0.220000 -0.175000
v 0.180000 0.220000 0.175000
v -0.180000 0.220000 0.175000
v -0.180000 0.000000 0.175000
v 0.180000 0.000000 0.175000
v 0.180000 0.000000 -0.175000
v -0.180000 0.000000 -0.175000
v 0.000000 0.220000 -0.175000
v 0.000000 0.550000 -0.184000
v 0.035897 0.550000 -0.180464
v 0.034141 0.220000 -0.171638
v 0.070414 0.550000 -0.169994
v 0.066970 0.220000 -0.161679
v 0.102225 0.550000 -0.152990
v 0.097225 0.220000 -0.145507
v 0.130108 0.550000 -0.130108
v 0.123744 0.220000 -0.123744
v 0.152991 0.550000 -0.102225
v 0.145507 0.220000 -0.097225
v 0.169994 0.550000 -0.070414
v 0.161679 0.220000 -0.066970
v 0.180465 0.550000 -0.035897
v 0.171638 0.220000 -0.034141
v 0.184000 0.550000 0.000000
v 0.175000 0.220000 0.000000
v 0.180465 0.550000 0.035897
v 0.171637 0.220000 0.034141
v 0.169994 0.550000 0.070414
v 0.161679 0.220000 0.066969
v 0.152991 0.550000 0.102225
v 0.145507 0.220000 0.097225
v 0.130108 0.550000 0.130108
v 0.123744 0.220000 0.123743
v 0.102225 0.550000 0.152990
v 0.097225 0.220000 0.145507
v 0.070414 0.550000 0.169994
v 0.066970 0.220000 0.161679
v 0.035897 0.550000 0.180465
v 0.034141 0.220000 0.171637
v 0.000000 0.550000 0.184000
v 0.000000 0.220000 0.175000
v -0.035897 0.550000 0.180465
v -0.034141 0.220000 0.171637
v -0.070414 0.550000 0.169994
v -0.066970 0.220000 0.161679
v -0.102225 0.550000 0.152990
v -0.097225 0.220000 0.145507
v -0.130108 0.550000 0.130108
v -0.123744 0.220000 0.123743
v -0.152990 0.550000 0.102225
v -0.145507 0.220000 0.097224
v -0.169994 0.550000 0.070414
v -0.161679 0.220000 0.066969
v -0.180464 0.550000 0.035897
v -0.171637 0.220000 0.034140
v -0.184000 0.550000 0.000000
v -0.175000 0.220000 0.000000
v -0.180464 0.550000 -0.035897
v -0.171637 0.220000 -0.034141
v -0.169994 0.550000 -0.070414
v -0.161679 0.220000 -0.066970
v -0.152990 0.550000 -0.102225
v -0.145507 0.220000 -0.097225
v -0.130107 0.550000 -0.130108
v -0.123743 0.220000 -0.123744
v -0.102225 0.550000 -0.152990
v -0.097225 0.220000 -0.145508
v -0.070413 0.550000 -0.169994
v -0.066969 0.220000 -0.161679
v -0.035896 0.550000 -0.180465
v -0.034140 0.220000 -0.171638
v -0.180000 0.000000 0.591000
v 0.180000 0.000000 0.591000
v -0.180000 0.000000 -0.591000
v 0.180000 0.000000 -0.591000
v -1.060000 0.000000 0.175000
v -1.060000 0.000000 -0.175000
vn 0.0000 -1.0000 0.0000
vn 0.0000 0.0000 -1.0000
vn -1.0000 0.0000 0.0000
vn 0.0000 1.0000 0.0000
vn 1.0000 0.0000 0.0000
vn 0.0000 0.0000 1.0000
vn 0.0980 -0.0271 -0.9948
vn 0.2902 -0.0271 -0.9566
vn 0.4712 -0.0271 -0.8816
vn 0.6341 -0.0271 -0.7727
vn 0.7727 -0.0271 -0.6342
vn 0.7727 -0.0271 -0.6341
vn 0.8816 -0.0271 -0.4712
vn 0.9566 -0.0271 -0.2902
vn 0.9948 -0.0271 -0.0980
vn 0.9948 -0.0271 0.0980
vn 0.9566 -0.0271 0.2902
vn 0.8816 -0.0271 0.4712
vn 0.7727 -0.0271 0.6342
vn 0.6341 -0.0271 0.7727
vn 0.6342 -0.0271 0.7727
vn 0.4712 -0.0271 0.8816
vn 0.2902 -0.0271 0.9566
vn 0.0980 -0.0271 0.9948
vn -0.0980 -0.0271 0.9948
vn -0.2902 -0.0271 0.9566
vn -0.4712 -0.0271 0.8816
vn -0.6341 -0.0271 0.7727
vn -0.6342 -0.0271 0.7727
vn -0.7727 -0.0271 0.6341
vn -0.8816 -0.0271 0.4712
vn -0.9566 -0.0271 0.2902
vn -0.9948 -0.0271 0.0980
vn -0.9948 -0.0271 -0.0980
vn -0.9566 -0.0271 -0.2902
vn -0.8816 -0.0271 -0.4712
vn -0.7727 -0.0271 -0.6342
vn -0.6342 -0.0271 -0.7727
vn -0.4712 -0.0271 -0.8816
vn -0.2902 -0.0271 -0.9566
vn -0.0980 -0.0271 -0.9948
usemtl None
s off
f 1//1 2//1 3//1
f 1//1 3//1 4//1
f 5//2 4//2 3//2
f 5//2 3//2 6//2
f 6//3 3//3 2//3
f 6//3 2//3 7//3
f 7//4 8//4 5//4
f 7//4 5//4 6//4
f 8//5 1//5 4//5
f 8//5 4//5 5//5
f 7//6 2//6 1//6
f 7//6 1//6 8//6
f 9//7 10//7 11//7
f 9//7 11//7 12//7
f 12//8 11//8 13//8
f 12//8 13//8 14//8
f 14//9 13//9 15//9
f 14//9 15//9 16//9
f 16//10 15//10 17//10
f 16//10 17//10 18//10
f 18//11 17//11 19//11
f 18//12 19//12 20//12
f 20//13 19//13 21//13
f 20//13 21//13 22//13
f 22//14 21//14 23//14
f 22//14 23//14 24//14
f 24//15 23//15 25//15
f 24//15 25//15 26//15
f 26//16 25//16 27//16
f 26//16 27//16 28//16
f 28//17 27//17 29//17
f 28//17 29//17 30//17
f 30//18 29//18 31//18
f 30//18 31//18 32//18
f 32//19 31//19 33//19
f 32//19 33//19 34//19
f 34//20 33//20 35//20
f 34//21 35//21 36//21
f 36//22 35//22 37//22
f 36//22 37//22 38//22
f 38//23 37//23 39//23
f 38//23 39//23 40//23
f 40//24 39//24 41//24
f 40//24 41//24 42//24
f 42//25 41//25 43//25
f 42//25 43//25 44//25
f 44//26 43//26 45//26
f 44//26 45//26 46//26
f 46//27 45//27 47//27
f 46//27 47//27 48//27
f 48//28 47//28 49//28
f 48//29 49//29 50//29
f 50//30 49//30 51//30
f 50//30 51//30 52//30
f 52//31 51//31 53//31
f 52//31 53//31 54//31
f 54//32 53//32 55//32
f 54//32 55//32 56//32
f 56//33 55//33 57//33
f 56//33 57//33 58//33
f 58//34 57//34 59//34
f 58//34 59//34 60//34
f 60//35 59//35 61//35
f 60//35 61//35 62//35
f 62//36 61//36 63//36
f 62//36 63//36 64//36
f 64//37 63//37 65//37
f 64//37 65//37 66//37
f 66//38 65//38 67//38
f 66//38 67//38 68//38
f 68//39 67//39 69//39
f 68//39 69//39 70//39
f 13//4 11//4 10//4
f 10//4 71//4 69//4
f 69//4 67//4 65//4
f 65//4 63//4 61//4
f 61//4 59//4 57//4
f 57//4 55//4 53//4
f 53//4 51//4 49//4
f 49//4 47//4 45//4
f 45//4 43//4 41//4
f 41//4 39//4 37//4
f 37//4 35//4 33//4
f 33//4 31//4 29//4
f 29//4 27//4 25//4
f 25//4 23//4 21//4
f 21//4 19//4 17//4
f 17//4 15//4 13//4
f 13//4 10//4 69//4
f 69//4 65//4 61//4
f 61//4 57//4 53//4
f 53//4 49//4 45//4
f 45//4 41//4 37//4
f 37//4 33//4 29//4
f 29//4 25//4 21//4
f 21//4 17//4 13//4
f 13//4 69//4 61//4
f 61//4 53//4 45//4
f 45//4 37//4 29//4
f 29//4 21//4 13//4
f 13//4 61//4 45//4
f 45//4 29//4 13//4
f 70//40 69//40 71//40
f 70//40 71//40 72//40
f 72//41 71//41 10//41
f 72//41 10//41 9//41
f 72//1 9//1 12//1
f 12//1 14//1 16//1
f 16//1 18//1 20//1
f 20//1 22//1 24//1
f 24//1 26//1 28//1
f 28//1 30//1 32//1
f 32//1 34//1 36//1
f 36//1 38//1 40//1
f 40//1 42//1 44//1
f 44//1 46//1 48//1
f 48//1 50//1 52//1
f 52//1 54//1 56//1
f 56//1 58//1 60//1
f 60//1 62//1 64//1
f 64//1 66//1 68//1
f 68//1 70//1 72//1
f 72//1 12//1 16//1
f 16//1 20//1 24//1
f 24//1 28//1 32//1
f 32//1 36//1 40//1
f 40//1 44//1 48//1
f 48//1 52//1 56//1
f 56//1 60//1 64//1
f 64//1 68//1 72//1
f 72//1 16//1 24//1
f 24//1 32//1 40//1
f 40//1 48//1 56//1
f 56//1 64//1 72//1
f 72//1 24//1 40//1
f 40//1 56//1 72//1
f 6//4 5//4 73//4
f 6//4 73//4 74//4
f 7//1 8//1 75//1
f 7//1 75//1 76//1
f 8//1 5//1 77//1
f 8//1 77//1 78//1
